<?xml version="1.0" encoding="UTF-8"?>
<svg id="New_Layer" data-name="New Layer" xmlns="http://www.w3.org/2000/svg" viewBox="0 0 648.77 360.38">
  <defs>
    <style>
      .cls-1 {
        fill: #fff;
      }

      .cls-1, .cls-2 {
        fill-rule: evenodd;
      }

      .cls-3 {
        fill: #c4d93c;
      }
    </style>
  </defs>
  <rect class="cls-3" x="165.79" width="227.44" height="215.43" rx="50.04" ry="50.04"/>
  <g>
    <path class="cls-2" d="M276.94,56.16l-9,13.47c-.14.2-.38.33-.65.34l-12.87.39c-7.22.27-16.14.47-19.75.47h-6.08c-.28,0-.53.13-.67.34l-13.99,20.96c-6.68,10.03-12.36,18.68-13.98,21.23-.27.43.03.95.58,1.02,2.4.28,8.81.49,17.86.54l17.77.19c.6,0,.97.59.66,1.04l-5.29,7.76c-6.92,10.01-7.99,13.12-7.45,21.37.54,7.91,2.69,12.51,8.38,17.71l1.33,1.23c.61.56,1.64-.05,1.28-.76h0c-2.23-4.33-2.54-10.01-.77-13.79.61-1.35,5.61-9.06,11.07-17.11,5.46-8.11,12.45-18.73,15.68-23.53l5.1-7.77c.3-.46-.07-1.03-.67-1.03l-17.42-.19c-12.53-.07-18.75-.41-18.75-.88,0-.41,1.92-3.58,4.3-7.1l4.08-6.02c.14-.21.39-.33.67-.34l19.16-.13,19.16-.2c.27,0,.53-.13.67-.34l9.23-13.86,9.16-13.87c.14-.21.39-.34.66-.34l8.94-.19c5.07-.07,9.3.07,9.3.27,0,.68-3.3,5.88-11.22,17.58-3.54,5.27-6.46,9.94-6.46,10.35,0,.54,7.61.74,26.51.74h26.06c.28,0,.54-.13.68-.34l4.38-6.62c2.54-3.79,4.61-7.3,4.61-7.71,0-.68-4.07-.88-16.45-1.01l-15.02-.19c-.6,0-.97-.58-.66-1.04l7.23-10.81c4.44-6.46,8.49-12.58,9.14-13.71,0-.01.01-.02.02-.03l.52-.77c.31-.46-.07-1.04-.67-1.04h-56.67c-.28,0-.53.13-.67.34l-9,13.39Z"/>
    <path class="cls-2" d="M281.4,107.55c-2.77,4.19-10.61,15.75-17.37,25.83-6.69,10.01-13.37,19.95-14.83,21.97-3.23,4.53-3.61,9.94-1.08,12.98,3.46,4.06,4.46,4.26,24.67,4.46l17.99.2c.28,0,.54-.13.68-.34l4.53-6.76c2.61-3.85,4.76-7.37,4.76-7.78,0-.54-5.15-.74-16.45-.74h-15.17c-.6,0-.98-.57-.68-1.03l3.24-4.92c6.07-9.13,3.69-8.25,22.9-8.25h16.23c.28,0,.54-.13.68-.34l4.38-6.62,3.93-5.88c.3-.46-.06-1.03-.66-1.04l-15.02-.19c-9.38-.07-16.45-.41-16.45-.81,0-.34,1.92-3.52,4.3-7.03l4.08-6.15c.14-.21.4-.34.68-.34h33.14c.28,0,.54-.13.68-.35l2.54-3.91c1.54-2.3,3.69-5.61,4.84-7.44l1.45-2.14c.31-.46-.07-1.04-.67-1.04h-25.44l-26.3.07c-.27,0-.53.13-.67.34l-4.92,7.24Z"/>
  </g>
  <g>
    <path class="cls-1" d="M53.8,250.24c-2.1,1.2-2.4,6.9-.6,8.7,2.1,2.1,6.6,1.4,8.3-1.2,3.4-5.1-2.3-10.7-7.7-7.5Z"/>
    <path class="cls-1" d="M511.7,250.94c-2,2.2-2.2,6.3-.5,8s6.4,1.5,8.2-.4c2.2-2.1,2-5-.4-7.4s-5.2-2.6-7.3-.2Z"/>
    <g>
      <path class="cls-1" d="M113,280.74v31.5l4.3-.3,4.2-.3.5-15c.3-9.3,1-15.8,1.8-17.2,3.2-5.6,10.1-7,14.9-2.9l2.8,2.4.5,16.4.5,16.3h8l.3-13.4c.3-16.8-.9-23.4-5.2-27.7s-10.4-5.3-16.4-2.9c-2.3,1-4.9,2.7-5.7,3.8-1.4,1.9-1.5,1-1.5-10.1v-12.2h-9v31.6Z"/>
      <path class="cls-1" d="M.7,251.74c-.4.4-.7,2.2-.7,4v3.3l9.3.3,9.2.3.3,26.2.2,26.3h9v-53h18.1l-.3-3.8-.3-3.7-22.1-.3c-12.1-.1-22.3.1-22.7.4Z"/>
      <path class="cls-1" d="M229.7,251.84c-.4.3-.7,14.1-.7,30.5v29.8h40v-7.9l-15.2-.3-15.3-.3-.3-9.3-.3-9.2h27.1v-8h-27v-18h30v-8h-18.8c-10.4,0-19.2.3-19.5.7Z"/>
      <path class="cls-1" d="M327,261.04c0,6.1-.7,7.1-5.1,7.1-1.5,0-1.9.7-1.9,3.5,0,3.3.2,3.5,3.5,3.5h3.5v13.5c0,19.7,2.1,23.5,13.2,23.5h5.8v-3.5c0-3.3-.2-3.5-3.3-3.5-5.9,0-6.7-1.9-6.7-16.8v-13.1l5.3-.3c5.1-.3,5.2-.4,5.5-3.6l.3-3.2h-11.1v-13h-9v5.9Z"/>
      <path class="cls-1" d="M81.5,267.04c-6.9,1.8-10.5,6.3-10.5,13.1,0,5.6,3.7,9.3,11.6,11.5,10.9,3,12.8,3.9,13.8,6.8,1.5,4.2-2,7.2-8.3,7.2-5.2,0-8.6-2-10.1-6.1-.7-1.6-1.5-1.9-4.4-1.6-4.3.5-4.7,2.8-1.6,7.9,2.9,4.8,7.3,6.7,15.5,6.8,11.3,0,17.5-4.5,17.5-12.8,0-7.4-3.6-11.4-12.5-13.8-2.2-.6-5.7-1.5-7.7-2-8.4-2.2-6.5-10.9,2.3-10.9,3.1,0,7.7,2.7,8.4,5,.5,1.5,1.5,2,4,2,1.9,0,3.7-.5,4-1,1.1-1.7-3-8.4-6.3-10.3-3.5-2-11.3-3-15.7-1.8Z"/>
      <path class="cls-1" d="M172.9,267.64c-5.1,1.6-10.2,6.6-12.5,12.1-2,4.8-1.7,16,.5,20.9,8.1,17.9,34.1,16,39.6-2.9,5.8-19.7-9.2-36-27.6-30.1ZM186.6,276.04c5.8,3.5,8.2,13.8,5,21.5-4.2,10-17.1,10.3-22.1.6-2-3.8-1.9-13.3.1-17.6,2.9-6.2,10.8-8.3,17-4.5Z"/>
      <path class="cls-1" d="M292.2,268.04c-2.3,1.1-4.5,2.7-4.8,3.6-1,2.6-2.4,1.7-2.4-1.6,0-2.9-.2-3-3.7-2.7l-3.8.3-.3,22.2-.2,22.3h9v-14c0-15.2,1-19.5,5.1-22.4,3.4-2.3,8.3-2,11.6.8l2.8,2.4.3,16.6.3,16.6h7.7l.7-10.5c1.3-18.3-1-29-6.9-32.9-4.2-2.7-10.5-3-15.4-.7Z"/>
      <path class="cls-1" d="M366.1,267.14c-4.5,1.1-7.9,3.8-11.6,8.9-2.8,4-3,4.9-3,13.5s.2,9.6,3,14.1c4,6.5,9,9,17.5,9s14.1-3,17-8.9c1.9-3.8,1.9-4.1.2-4.8-3.4-1.3-6-.8-7.6,1.7-5.6,8.5-18.8,5.8-21.4-4.5l-1-4h15.8c8.8,0,16.1-.4,16.4-.9.3-.4.1-3.5-.4-6.7-1.1-6.7-4.9-12.9-9.5-15.5-3.7-2.1-10.9-3-15.4-1.9ZM377.9,275.74c1.9,1.4,5.1,6.9,5.1,8.9,0,.3-5.2.5-11.5.5-11,0-11.5-.1-11.5-2.1,0-1.2,1.5-3.6,3.4-5.5,2.8-2.8,4.1-3.4,7.8-3.4,2.4,0,5.4.7,6.7,1.6Z"/>
      <path class="cls-1" d="M446.5,267.44c-1.6.8-3.9,2.4-4.9,3.6-2.6,2.9-3.6,2.6-3.6-1,0-2.9-.2-3-3.7-2.7l-3.8.3v61l4.3.3,4.2.3v-22l3.5,2.3c9.4,6.4,21.4,3.3,26.8-6.7,1.8-3.5,2.2-5.8,2.2-13.3,0-8.3-.2-9.4-3-13.9-4.7-7.6-14.9-11.4-22-8.2ZM457.1,275.84c3.9,2.3,5.9,7,5.9,13.7,0,10.4-3.9,15.6-11.6,15.6s-12.4-6.2-12.4-16c0-11.7,9.3-18.5,18.1-13.3Z"/>
      <path class="cls-1" d="M538.8,267.34c-9.1,2.5-13,13.7-6.9,19.8,1.7,1.7,5.1,3.5,8.7,4.5,12.2,3.4,12.9,3.7,13.2,7.6.4,4.2-1.1,5.8-6.2,6.6-4.7.7-9.3-1.3-11.2-4.8-1.2-2.5-2.1-2.9-5.4-2.9-3.9,0-4,.1-3.4,2.7,2,9.1,13.2,14.3,24.1,11.4,8.9-2.4,12.9-9,10.4-17.2-1.6-5.4-4.8-7.3-18.8-10.9-6.7-1.7-8.2-7.3-2.7-9.8,4.4-2.1,7.4-1.4,11,2.4,2.8,2.9,4,3.5,6.6,3.2,2.9-.3,3.3-.6,3-2.7-.5-3.4-3-7-6.1-8.5-3.7-1.9-11.9-2.6-16.3-1.4Z"/>
      <path class="cls-1" d="M584.4,267.04c-5.6,1.4-10,4.9-12.8,10.2-2.3,4.2-2.8,6.3-2.9,12.2,0,7.9,1.5,12.4,5.7,17.4,5.3,6.3,18.2,8,25.9,3.5,3.3-1.9,7.7-7.5,7.7-9.8,0-1.9-7.3-3.1-7.8-1.4-.9,2.7-5.1,5.9-8.5,6.5-6.5,1.2-12.3-3.2-14.1-10.8l-.6-2.7h32.3l-.6-6c-.7-7.7-4-13.8-9.2-16.7-4.7-2.6-10.7-3.5-15.1-2.4ZM596.5,276.54c2.3,2.3,4.3,7.2,3.3,8.2-.3.2-5.5.3-11.6.2l-11.1-.3,1.8-4c2.1-4.7,4.9-6.3,10.9-6.4,3.3-.1,4.9.5,6.7,2.3Z"/>
      <polygon class="cls-1" points="53 289.64 53 312.14 57 312.14 61 312.14 61 289.64 61 267.14 57 267.14 53 267.14 53 289.64"/>
      <path class="cls-1" d="M400,289.54v22.6h7.7l.5-13.8c.7-18.4,2.1-21.3,11.7-22.8,4-.6,4.1-.8,4.1-4.5q0-3.9-4.1-3.9c-3.5,0-4.8.6-8,3.8l-3.8,3.9-.3-3.6c-.3-3.4-.5-3.6-4-3.9l-3.8-.3v22.5Z"/>
      <path class="cls-1" d="M480.6,267.94c-.2.4-.4,10.4-.3,22.2l.2,21.5,4.3.3,4.2.3.1-12.8c0-7.2.5-14.3,1.2-16.2,1.5-4.3,5.2-7,9.9-7.3,3.7-.3,3.8-.4,3.8-4.6s-.1-4.2-3.1-4.2c-3.9,0-6.8,1.5-9.6,4.8-2.2,2.6-2.3,2.6-2.3.5,0-4-1.1-5.3-4.5-5.3-1.9,0-3.6.4-3.9.8Z"/>
      <polygon class="cls-1" points="511 289.64 511 312.14 515 312.14 519 312.14 519 289.64 519 267.14 515 267.14 511 267.14 511 289.64"/>
      <g>
        <path class="cls-1" d="M192.25,335.89c-1.5,1-2.2,2.5-2.2,4.9,0,3.8,2.3,5.9,8,7.5,2,.5,4.4,1.6,5.5,2.4,1.7,1.2,1.8,1.7.7,4-1,2.2-1.8,2.6-5.2,2.6-3.1,0-4.3-.5-5.6-2.5-.9-1.4-2.3-2.5-3-2.5-1.7,0-1.7.2-.3,3.3,1.9,4.3,9.3,6.1,14.2,3.6,3-1.6,3.7-2.8,3.7-6.5s-1.3-5-8-7.2c-6.5-2.1-8.2-4.2-5.6-7.1s6-2.6,9,.6c3.4,3.7,5.6,1.9,2.6-2-1.8-2.2-2.9-2.7-6.9-2.7-2.6,0-5.6.7-6.9,1.6Z"/>
        <path class="cls-1" d="M291.45,336.79c-2.6,2.6-2.8,4.5-.6,5.3.7.2,1.2-.3,1.2-1.2s1.1-2.3,2.5-3.2c2.3-1.5,2.7-1.5,5,0,4.2,2.8,3.3,6-4,13.5-3.6,3.7-6.5,7.3-6.5,8,0,1.7,16.2,1.1,16.8-.7.3-.9-1.3-1.2-5.7-1.2-3.4,0-6.1-.4-6.1-.8,0-.5,1.3-1.8,2.9-3,4.8-3.6,8.4-8.9,8.3-12.5-.2-6.5-8.9-9.1-13.8-4.2Z"/>
        <path class="cls-1" d="M313.75,335.39c-4,2.3-6,12.4-3.7,18.3,2.2,5.8,8,8.3,13.1,5.6,5.5-3,6.8-17.3,1.9-22.5-2.5-2.7-7.9-3.4-11.3-1.4ZM322.55,338.79c2,1.9,2.5,3.4,2.5,7.7,0,2.9-.6,6.4-1.3,7.8-1.5,3.1-6.1,3.9-8.7,1.5-3.9-3.6-3.4-16,.8-18.5,2.7-1.5,4.1-1.2,6.7,1.5Z"/>
        <path class="cls-1" d="M334.05,336.29c-2.4,2.4-2.7,6-.5,6,.8,0,1.5-.6,1.5-1.3,0-1.8,3.2-4.7,5.3-4.7,2.3,0,4.7,2.8,4.7,5.7,0,1.8-1.8,4.3-6.5,8.7-3.6,3.4-6.5,7-6.5,7.9,0,1.6.9,1.7,8.2,1.5,5.4-.2,8.3-.7,8.6-1.6s-1.4-1.2-6.5-1.2h-6.8l5.2-4.8c2.8-2.6,5.6-5.7,6.2-6.9,3-6-.3-11.3-6.9-11.3-2.7,0-4.7.7-6,2Z"/>
        <path class="cls-1" d="M354.35,336.59c-4,2.7-4.2,3.9-.5,3.5l2.7-.3.3,10.2c.2,8.3.6,10.3,1.7,10.3,1.2,0,1.5-2.2,1.5-13,0-14.3-.1-14.4-5.7-10.7Z"/>
        <path class="cls-1" d="M213.05,350.19c0,8.4.3,10.1,1.5,10.1,1.3,0,1.5-1.5,1.3-9.7-.2-6.6-.7-9.8-1.5-10.1-1-.3-1.3,2.1-1.3,9.7Z"/>
        <path class="cls-1" d="M221.05,350.29c0,8.2.3,10,1.5,10s1.5-1.4,1.5-6.3c0-7.2,1.8-10.7,5.5-10.7,3.3,0,4.5,2.7,4.5,10.4,0,5.2.3,6.6,1.5,6.6s1.5-1.5,1.5-7.4-.4-7.8-2.1-10c-2.3-2.9-5.4-3.3-8.7-1-2,1.4-2.2,1.4-2.2,0,0-.9-.7-1.6-1.5-1.6-1.2,0-1.5,1.8-1.5,10Z"/>
        <path class="cls-1" d="M245.55,341.49c-3.4,1.8-4.5,4-4.5,9,0,6.2,3.1,9.8,8.5,9.8,3.7,0,7.5-2.8,7.5-5.5,0-2.1-1.3-1.9-3.5.5-3.9,4.3-9.5,1.2-9.5-5.2,0-5.9,6.4-9.3,9.2-4.8,1.5,2.3,3.8,2.7,3.8.6s-4.8-5.6-7.4-5.6c-1.1,0-3,.6-4.1,1.2Z"/>
        <path class="cls-1" d="M265.55,341.29c-3.5,1.4-4.9,3.9-4.9,9.2,0,4.3.4,5.4,2.8,7.4,3.4,3,8.8,3.2,11.6.4,1.1-1.1,2-2.5,2-3,0-1.6-2.7-1.2-3.4.6-1,2.6-7.8,1.5-9.3-1.6l-1.2-2.5,7.5-.3c6.3-.2,7.5-.5,7-1.8-.3-.9-.6-2.2-.6-3,0-2.3-4.7-6.4-7.2-6.3-1.3,0-3.2.4-4.3.9ZM272.85,344.49c2.6,2.6,1.3,3.8-3.8,3.8-3.4,0-5-.4-5-1.3,0-2.1,2.2-3.7,5-3.7,1.4,0,3.1.5,3.8,1.2Z"/>
        <path class="cls-1" d="M365.45,356.79c-.4.9-.2,2.1.4,2.7,1.5,1.5,4.4.1,4-1.9-.4-2.3-3.6-2.9-4.4-.8Z"/>
      </g>
      <path class="cls-1" d="M624.74,267.34c-9.1,2.5-13,13.7-6.9,19.8,1.7,1.7,5.1,3.5,8.7,4.5,12.2,3.4,12.9,3.7,13.2,7.6.4,4.2-1.1,5.8-6.2,6.6-4.7.7-9.3-1.3-11.2-4.8-1.2-2.5-2.1-2.9-5.4-2.9-3.9,0-4,.1-3.4,2.7,2,9.1,13.2,14.3,24.1,11.4,8.9-2.4,12.9-9,10.4-17.2-1.6-5.4-4.8-7.3-18.8-10.9-6.7-1.7-8.2-7.3-2.7-9.8,4.4-2.1,7.4-1.4,11,2.4,2.8,2.9,4,3.5,6.6,3.2,2.9-.3,3.3-.6,3-2.7-.5-3.4-3-7-6.1-8.5-3.7-1.9-11.9-2.6-16.3-1.4Z"/>
    </g>
  </g>
</svg>